<svg xmlns="http://www.w3.org/2000/svg" xmlns:xlink="http://www.w3.org/1999/xlink" version="1.1" x="0px" y="0px" viewBox="0 0 100 125" enable-background="new 0 0 20 20" xml:space="preserve"><path fill="none" stroke="#7C7B7D" stroke-width="2" stroke-linecap="round" stroke-linejoin="round" stroke-miterlimit="10" d="  M66.6,42.4L66.6,42.4l-0.3,0.5c-0.2,0.3-0.4,0.7-0.6,1l-6.6,10.6L50,68.9l-9.1-14.5l-6.6-10.6c-0.2-0.3-0.4-0.6-0.6-1l-0.3-0.5  c-1.6-2.8-2.5-6-2.5-9.4c0-10.5,8.5-19.1,19.1-19.1c10.5,0,19.1,8.5,19.1,19.1C69.1,36.4,68.2,39.6,66.6,42.4z"/><circle fill="none" stroke="#7C7B7D" stroke-width="2" stroke-miterlimit="10" cx="50" cy="32.4" r="8.2"/><path fill="none" stroke="#7C7B7D" stroke-width="2" stroke-linecap="round" stroke-linejoin="round" stroke-miterlimit="10" d="  M88.2,83.1H11.8c-1.2,0-1.9-1.3-1.3-2.3l13.8-24.5c0.6-1.1,1.9-1.9,3.2-1.9h13.4L50,68.9l9.1-14.5h13.4c1.3,0,2.5,0.7,3.2,1.9  l13.8,24.5C90.1,81.8,89.4,83.1,88.2,83.1z"/></svg>