<svg xmlns="http://www.w3.org/2000/svg" xmlns:xlink="http://www.w3.org/1999/xlink" version="1.1" x="0px" y="0px" viewBox="0 0 100 125" enable-background="new 0 0 100 100" xml:space="preserve"><g><path fill="#7C7B7D" d="M10.995,8.691c0,0.716,0,2.203,0,3.305v85.042c0,1.102,0.901,2.003,2.003,2.003h62.899   c1.104,0,2.626,0,3.381,0c0.756,0,2.28,0,3.374,0h4.35c1.102,0,2.003-0.901,2.003-2.003V19.977c0-1.102-0.634-2.642-1.412-3.422   L71.551,0.46c-0.786-0.779-2.321-1.419-3.421-1.419H12.993c-1.103,0-1.998,0.902-1.998,2.004v4.348   C10.995,6.494,10.995,7.983,10.995,8.691z M86.257,94.29c0,1.101-0.901,2.004-2.003,2.004h-1.602c-1.094,0-2.618,0-3.374,0   c-0.755,0-2.277,0-3.381,0H15.746c-1.102,0-2.003-0.903-2.003-2.004v-82.3c0-1.096,0-2.583,0-3.299c0-0.715,0-2.197,0-3.299V3.641   c0-1.102,0.901-2.003,2.003-2.003h51.586v2.003v7.318c0,1.102,0,2.906,0,4.008v0.603c0,1.104,0,2.714,0,3.575   c0,0.867,0.697,1.576,1.552,1.576c0.855,0,2.455,0,3.557,0h0.615c1.108,0,2.913,0,4.007,0h7.191h2.003V94.29L86.257,94.29z"/><polygon fill="#7C7B7D" points="27.945,53.005 50.006,75.428 72.06,53.005 57.77,53.005 57.77,28.203 42.23,28.203 42.23,53.005     "/></g></svg>